<?xml version="1.0" encoding="UTF-8" standalone="no"?>
<svg
   version="1.1"
   id="Layer_1"
   x="0px"
   y="0px"
   width="100%"
   viewBox="0 0 1254 1254"
   enable-background="new 0 0 1254 1254"
   xml:space="preserve"
   sodipodi:docname="file.svg"
   inkscape:version="1.4.4 (dcaf3e7d9e, 2026-05-05)"
   xmlns:inkscape="http://www.inkscape.org/namespaces/inkscape"
   xmlns:sodipodi="http://sodipodi.sourceforge.net/DTD/sodipodi-0.dtd"
   xmlns="http://www.w3.org/2000/svg"
   xmlns:svg="http://www.w3.org/2000/svg"><defs
   id="defs14" /><sodipodi:namedview
   id="namedview14"
   pagecolor="#505050"
   bordercolor="#ffffff"
   borderopacity="1"
   inkscape:showpageshadow="0"
   inkscape:pageopacity="0"
   inkscape:pagecheckerboard="1"
   inkscape:deskcolor="#505050"
   inkscape:zoom="0.39633174"
   inkscape:cx="625.73843"
   inkscape:cy="627"
   inkscape:window-width="1274"
   inkscape:window-height="746"
   inkscape:window-x="0"
   inkscape:window-y="0"
   inkscape:window-maximized="1"
   inkscape:current-layer="Layer_1" />

<path
   fill="#D20A21"
   opacity="1.000000"
   stroke="none"
   d=" M694.091003,701.032532   C693.434204,721.998718 686.667786,741.176392 676.473938,759.194092   C657.738220,792.309387 632.875183,819.632141 599.377625,838.353394   C579.617188,849.397156 558.567139,855.447815 535.657532,852.192322   C502.412018,847.468201 474.797363,821.038147 470.287018,787.680420   C468.138092,771.787537 468.829468,755.463440 468.834167,739.334900   C468.852722,675.672363 469.145264,612.009888 469.264984,548.347290   C469.351471,502.349243 469.316284,456.351044 469.353088,410.352905   C469.376312,381.346069 446.735870,358.767395 417.641174,358.808777   C406.308319,358.824921 394.973572,358.689789 383.642975,358.852264   C356.491638,359.241577 333.354492,382.432495 333.338928,409.637299   C333.249054,566.463989 333.230835,723.290771 333.287903,880.117493   C333.298737,909.869385 356.608337,933.160522 386.307037,933.177124   C488.136169,933.234070 589.965454,933.207703 691.794495,933.103027   C718.795471,933.075256 740.663086,913.718872 745.396484,886.191040   C746.322632,884.192871 746.950867,882.655396 746.951172,881.117859   C746.995605,667.092163 746.997009,453.066437 746.947327,239.040741   C746.946960,237.341400 746.224243,235.642242 745.838806,233.943008   C747.273010,206.033127 757.804749,181.766006 776.871094,161.694534   C827.773315,108.108917 913.563232,115.564758 954.592346,176.867233   C965.919617,193.791718 972.194336,212.565247 972.981201,233.686432   C972.396484,236.364090 972.024963,238.322403 972.024719,240.280731   C971.998779,477.030853 972.000122,713.780945 971.999817,950.531067   C971.999817,951.863892 971.993591,953.196777 971.990356,954.529663   C972.549805,954.366455 973.109314,954.203308 973.668823,954.040161   C975.827209,967.830811 981.468140,979.389160 994.593201,985.928711   C1017.217834,997.201294 1042.102173,983.753174 1047.507568,957.213379   C1048.364258,955.004822 1048.957153,953.286926 1048.957520,951.568848   C1048.999634,689.780334 1049.000854,427.991821 1048.959839,166.203308   C1048.959473,164.470596 1048.349487,162.737991 1048.024170,161.005325   C1048.917236,146.683289 1056.629150,136.820419 1068.994385,130.684235   C1082.889648,123.788795 1097.274414,123.994041 1111.208862,130.653885   C1120.735840,135.207245 1127.280518,142.779037 1129.947021,153.698853   C1130.070801,154.826294 1130.417603,155.429367 1130.764404,156.032410   C1130.934448,156.750977 1131.104492,157.469528 1130.924805,158.851105   C1130.401367,160.980499 1130.075562,162.446854 1130.075439,163.913254   C1130.052124,429.245972 1130.049927,694.578674 1130.097290,959.911377   C1130.097534,961.625000 1130.798096,963.338440 1131.171753,965.052002   C1131.156738,966.761902 1131.141724,968.471863 1130.633057,970.654114   C1130.135986,972.430786 1130.132690,973.735046 1130.129272,975.039368   C1130.104614,975.788391 1130.079834,976.537354 1129.562988,977.715088   C1128.788818,980.116699 1128.506714,982.089661 1128.224609,984.062622   C1123.123901,1007.102173 1111.221558,1026.199829 1094.057495,1042.070312   C1046.659912,1085.895874 964.439941,1084.014038 921.068970,1026.616699   C906.386597,1007.185852 898.814453,985.094543 898.815674,960.598450   C898.827942,722.131226 898.850647,483.663940 898.872192,245.196701   C898.873413,231.359543 894.725586,219.251816 883.630615,210.370941   C872.504272,201.465012 859.929443,199.111923 846.578552,204.263458   C832.052979,209.868271 823.545349,220.792984 820.992371,236.153854   C820.370422,239.895599 820.280273,243.758728 820.279907,247.566071   C820.258911,462.703369 820.281311,677.840698 820.278992,892.977966   C820.278381,951.241516 772.840332,998.844910 714.517273,998.886963   C596.699951,998.971924 478.882538,998.947876 361.065186,998.898499   C304.841461,998.874939 257.238983,953.829407 255.083313,897.497803   C253.874146,865.900452 254.529510,834.228027 254.513138,802.589355   C254.466019,711.603943 254.496567,620.618469 254.513260,529.633057   C254.520309,491.138763 254.556290,452.644440 254.606186,414.150177   C254.622131,401.845154 253.840302,389.460327 254.943604,377.249329   C259.374084,328.213806 300.490082,289.441315 348.280457,289.624542   C383.941650,289.761261 419.605194,289.826538 455.265289,289.578491   C493.145599,289.314972 520.107910,307.044495 537.493286,339.722900   C541.920715,348.044952 543.405090,357.932800 545.864258,367.806885   C545.325378,370.314392 545.022827,372.116180 545.022400,373.918060   C544.999023,466.005951 545.001404,558.093872 545.000916,650.181763   C545.000732,682.987061 544.969299,715.792419 545.084045,748.597290   C545.090332,750.399292 546.311462,752.197083 546.967163,753.996826   C548.998413,763.419250 552.491394,772.094360 560.255066,778.332581   C571.360474,787.255859 583.640808,789.814697 596.963745,784.010681   C610.491028,778.117676 617.526672,767.369873 619.684204,752.287170   C620.502563,749.603760 620.967346,747.498718 620.968628,745.393372   C621.007080,682.599609 620.999207,619.805847 620.999573,557.012085   C621.000122,466.235962 621.011353,375.459808 620.933533,284.683746   C620.931946,282.795990 619.903809,280.909088 619.354614,279.021790   C616.002441,246.849716 599.942749,223.315414 571.123535,208.681549   C560.742188,203.410110 549.486023,201.126862 537.856934,201.118820   C462.534668,201.066803 387.212433,201.073685 311.890167,201.070084   C297.398346,201.069397 282.878296,200.530533 268.420074,201.237839   C227.406296,203.244278 192.951263,235.441483 187.754700,276.080780   C187.229233,280.190125 186.828781,284.350250 186.827927,288.486908   C186.781464,513.453491 186.690445,738.420166 186.902588,963.386536   C186.928497,990.857483 196.198364,1015.364380 215.943054,1035.039551   C233.754456,1052.788208 255.656235,1061.662476 280.735962,1061.684937   C425.547699,1061.814575 570.359619,1061.751587 715.171448,1061.760132   C732.204834,1061.761108 745.478088,1072.142456 749.702576,1088.717529   C753.990845,1105.543213 746.769958,1123.907715 732.213318,1131.105835   C727.318359,1133.526367 721.403748,1135.005981 715.951965,1135.015259   C586.304810,1135.233154 456.657257,1135.205444 327.009766,1135.181152   C310.184814,1135.177979 293.359253,1135.008667 276.535156,1134.812866   C206.974976,1134.003174 150.499329,1094.472168 126.338943,1032.554199   C121.350662,1019.770264 118.604523,1006.111511 115.182877,992.172607   C115.641838,990.020935 115.937256,988.535461 115.810120,987.087158   C115.275635,980.997742 114.100868,974.921021 114.081871,968.836792   C113.934364,921.592896 114.001053,874.348450 114.001060,827.104126   C114.001076,645.114502 114.004402,463.124908 113.956879,281.135315   C113.956345,279.083435 113.293991,277.031708 112.940582,274.979919   C112.888687,274.225983 112.836792,273.472015 113.270370,272.282776   C113.798157,269.883789 113.840462,267.920135 113.882767,265.956451   C115.207962,249.657028 119.974937,234.236755 126.871872,219.580750   C154.034348,161.860428 199.757278,130.346756 263.276276,126.654228   C295.814575,124.762680 328.541840,126.060104 361.183777,126.026024   C420.818237,125.963776 480.452972,125.875107 540.087158,126.006691   C579.254150,126.093117 613.397583,139.810837 642.386902,165.837845   C672.639587,192.999191 689.502625,227.238388 693.877319,267.637604   C694.038269,269.124054 694.007202,270.631226 693.730225,272.867004   C693.266357,275.084564 693.025696,276.563934 693.025513,278.043274   C693.008484,417.326630 693.005859,556.609985 693.054626,695.893372   C693.055237,697.606567 693.730591,699.319458 694.091003,701.032532  z"
   id="path2" />
<path
   fill="#D72D34"
   opacity="1.000000"
   stroke="none"
   d=" M1131.393188,964.698853   C1130.798096,963.338440 1130.097534,961.625000 1130.097290,959.911377   C1130.049927,694.578674 1130.052124,429.245972 1130.075439,163.913254   C1130.075562,162.446854 1130.401367,160.980499 1130.886719,159.225342   C1131.431641,161.548691 1131.869019,164.160812 1131.869507,166.772995   C1131.895020,330.691559 1131.884399,494.610107 1131.878418,658.528687   C1131.874634,758.812195 1131.874146,859.095764 1131.859497,959.379272   C1131.859253,961.034729 1131.699829,962.690247 1131.393188,964.698853  z"
   id="path3" />
<path
   fill="#CE020E"
   opacity="1.000000"
   stroke="none"
   d=" M1047.848633,161.385132   C1048.349487,162.737991 1048.959473,164.470596 1048.959839,166.203308   C1049.000854,427.991821 1048.999634,689.780334 1048.957520,951.568848   C1048.957153,953.286926 1048.364258,955.004822 1047.682617,956.851562   C1047.330078,831.688293 1047.340698,706.396362 1047.356567,581.104370   C1047.374146,443.315887 1047.395386,305.527405 1047.427246,167.738937   C1047.427734,165.747589 1047.587524,163.756271 1047.848633,161.385132  z"
   id="path4" />
<path
   fill="#CE0009"
   opacity="1.000000"
   stroke="none"
   d=" M973.709839,953.570557   C973.109314,954.203308 972.549805,954.366455 971.990356,954.529663   C971.993591,953.196777 971.999817,951.863892 971.999817,950.531067   C972.000122,713.780945 971.998779,477.030853 972.024719,240.280731   C972.024963,238.322403 972.396484,236.364090 972.935059,234.132523   C973.439941,235.654602 973.748413,237.449921 973.748474,239.245270   C973.763977,477.197144 973.756836,715.148987 973.709839,953.570557  z"
   id="path5" />
<path
   fill="#CF0C18"
   opacity="1.000000"
   stroke="none"
   d=" M112.768143,275.352478   C113.293991,277.031708 113.956345,279.083435 113.956879,281.135315   C114.004402,463.124908 114.001076,645.114502 114.001060,827.104126   C114.001053,874.348450 113.934364,921.592896 114.081871,968.836792   C114.100868,974.921021 115.275635,980.997742 115.810120,987.087158   C115.937256,988.535461 115.641838,990.020935 115.244911,991.755371   C114.010689,982.454651 112.255356,972.887939 112.254074,963.321045   C112.225716,751.595642 112.390259,539.870239 112.521843,328.144867   C112.532707,310.671600 112.570457,293.198303 112.768143,275.352478  z"
   id="path6" />
<path
   fill="#C90007"
   opacity="1.000000"
   stroke="none"
   d=" M745.660767,234.325806   C746.224243,235.642242 746.946960,237.341400 746.947327,239.040741   C746.997009,453.066437 746.995605,667.092163 746.951172,881.117859   C746.950867,882.655396 746.322632,884.192871 745.616150,885.850891   C745.300903,842.987915 745.403503,800.004333 745.405151,757.020813   C745.411743,584.581909 745.386780,412.142944 745.378479,239.704025   C745.378418,238.038879 745.446472,236.373749 745.660767,234.325806  z"
   id="path7" />
<path
   fill="#C9000E"
   opacity="1.000000"
   stroke="none"
   d=" M619.356323,279.488953   C619.903809,280.909088 620.931946,282.795990 620.933533,284.683746   C621.011353,375.459808 621.000122,466.235962 620.999573,557.012085   C620.999207,619.805847 621.007080,682.599609 620.968628,745.393372   C620.967346,747.498718 620.502563,749.603760 619.878906,751.982178   C619.455322,594.822266 619.406677,437.389191 619.356323,279.488953  z"
   id="path8" />
<path
   fill="#D1000E"
   opacity="1.000000"
   stroke="none"
   d=" M547.018860,753.530884   C546.311462,752.197083 545.090332,750.399292 545.084045,748.597290   C544.969299,715.792419 545.000732,682.987061 545.000916,650.181763   C545.001404,558.093872 544.999023,466.005951 545.022400,373.918060   C545.022827,372.116180 545.325378,370.314392 545.807617,368.232910   C546.432678,370.894531 547.002014,373.835602 547.003296,376.776978   C547.057312,502.206268 547.060852,627.635559 547.018860,753.530884  z"
   id="path9" />
<path
   fill="#CB0008"
   opacity="1.000000"
   stroke="none"
   d=" M694.219116,700.576294   C693.730591,699.319458 693.055237,697.606567 693.054626,695.893372   C693.005859,556.609985 693.008484,417.326630 693.025513,278.043274   C693.025696,276.563934 693.266357,275.084564 693.686279,273.308350   C694.087769,274.664703 694.293945,276.317871 694.294312,277.971130   C694.322205,418.687439 694.334106,559.403748 694.219116,700.576294  z"
   id="path10" />
<path
   fill="#CF0C18"
   opacity="1.000000"
   stroke="none"
   d=" M113.681244,266.280487   C113.840462,267.920135 113.798157,269.883789 113.390808,271.922058   C113.177094,270.199249 113.328407,268.401886 113.681244,266.280487  z"
   id="path11" />
<path
   fill="#D72D34"
   opacity="1.000000"
   stroke="none"
   d=" M1128.456177,983.802734   C1128.506714,982.089661 1128.788818,980.116699 1129.396118,978.053528   C1129.376709,979.823181 1129.032227,981.683044 1128.456177,983.802734  z"
   id="path12" />
<path
   fill="#D72D34"
   opacity="1.000000"
   stroke="none"
   d=" M1130.335449,974.753662   C1130.132690,973.735046 1130.135986,972.430786 1130.464355,971.048462   C1130.706787,972.136230 1130.624146,973.302063 1130.335449,974.753662  z"
   id="path13" />
<path
   fill="#D72D34"
   opacity="1.000000"
   stroke="none"
   d=" M1130.791748,155.748901   C1130.417603,155.429367 1130.070801,154.826294 1129.963379,154.080261   C1130.408203,154.446655 1130.613647,154.956024 1130.791748,155.748901  z"
   id="path14" />
</svg>
